Coordinates
version=1
nRows=9
nColumns=36
inDegrees=yes

Units are S.I. units (second, meters, Newtons, ...)
If the header above contains a line with 'inDegrees', this indicates whether rotational values are in degrees (yes) or radians (no).

endheader
time	pelvis_tilt	pelvis_list	pelvis_rotation	pelvis_tx	pelvis_ty	pelvis_tz	hip_flexion_r	hip_adduction_r	hip_rotation_r	knee_angle_r	knee_angle_r_beta	ankle_angle_r	subtalar_angle_r	mtp_angle_r	hip_flexion_l	hip_adduction_l	hip_rotation_l	knee_angle_l	knee_angle_l_beta	ankle_angle_l	subtalar_angle_l	mtp_angle_l	lumbar_extension	lumbar_bending	lumbar_rotation	arm_flex_r	arm_add_r	arm_rot_r	elbow_flex_r	pro_sup_r	arm_flex_l	arm_add_l	arm_rot_l	elbow_flex_l	pro_sup_l
      9.66666670	    -18.17980026	     -4.61193265	      3.42779318	     -0.13659636	      0.53663052	      0.09168663	     93.71134972	    -26.45973716	      0.74857815	    121.71210189	      2.12427692	     46.39140418	     -2.72037767	     -7.49999987	    100.20469124	    -22.87633315	     14.92009073	    120.09015578	      2.09596862	     39.42203567	      0.98164740	     -7.49999987	    -29.90423554	      3.91766230	      2.60963377	     67.98943385	      1.59239747	     82.84326218	    118.60887173	     92.81839325	     77.46476847	      2.01889348	     86.47704184	    118.35688878	     80.66908456
      9.68333330	    -17.77990696	     -4.69147425	      3.63390593	     -0.13383081	      0.52380999	      0.08875033	     95.13331160	    -26.84080336	      1.76059251	    123.63490763	      2.15783621	     46.46499474	     -2.47265655	     -7.49999987	    101.73161492	    -22.51386874	     16.14393960	    122.02150680	      2.12967705	     39.82066085	      1.47076112	     -7.49999987	    -30.64117562	      4.05187313	      2.47219608	     68.79990297	      1.54783996	     82.42106803	    118.57226134	     92.83092142	     78.62220180	      1.99809580	     86.10582563	    118.42759453	     80.69081472
      9.70000000	    -18.31203308	     -4.79170198	      3.82776515	     -0.12670925	      0.50851760	      0.08778306	     97.09421387	    -27.54003811	      2.97567765	    125.70788314	      2.19401646	     47.06780186	     -1.56442331	     -7.49999987	    103.81965442	    -22.30166218	     17.55283920	    124.06296046	      2.16530714	     40.98683078	      3.14379419	     -7.49999987	    -30.15049674	      4.22899475	      2.15427783	     68.71993306	      1.56275888	     82.56310904	    118.98352064	     92.99592538	     79.00268179	      1.85789626	     86.37085799	    119.01009048	     80.84999065
      9.71666670	    -18.55834399	     -4.83765336	      3.85201799	     -0.11716788	      0.49792352	      0.08594435	     98.51875382	    -28.03218282	      4.47997918	    127.65093622	      2.22792913	     47.34354669	     -1.07633430	     -7.49999987	    105.34553831	    -22.54979247	     18.66759787	    125.95522779	      2.19833343	     41.77763444	      4.08560687	     -7.49999987	    -29.62167791	      4.47467816	      2.12172018	     68.52535856	      1.59287853	     82.86059511	    118.90284895	     93.15113694	     78.91529237	      1.84507052	     86.53154276	    119.17433377	     80.98469749
      9.73333330	    -19.73884301	     -4.92754311	      3.92180033	     -0.11313735	      0.48432307	      0.08580946	    100.60216750	    -28.66414293	      5.83973988	    129.36905890	      2.25791603	     47.72583486	     -0.51829189	     -7.49999987	    107.72663501	    -22.68741739	     19.63429174	    127.69524648	      2.22870249	     42.40914045	      4.96272421	     -7.49999987	    -27.75394298	      4.70699172	      1.90089869	     67.56346130	      1.69861813	     83.45020799	    118.56589362	     93.68103254	     78.04344337	      1.79061317	     87.03838619	    119.01853391	     81.43952855
      9.75000000	    -20.69084097	     -5.08566959	      3.86699882	     -0.10659579	      0.47023145	      0.08495587	    102.58374401	    -29.10423908	      7.35717083	    131.22778402	      2.29035690	     48.22380062	      0.29304074	     -7.49999987	    110.00201276	    -22.96036835	     21.05781317	    129.49694795	      2.26014811	     43.39027453	      6.23134134	     -7.49999987	    -25.89115203	      5.04821070	      1.69261490	     66.67691527	      1.88570563	     84.34435589	    118.34060867	     94.16584298	     77.28643613	      1.80068846	     87.46487718	    118.76936084	     81.83818271
      9.76666670	    -20.83753953	     -5.13680805	      4.10424752	     -0.11495095	      0.45866053	      0.08344071	    104.31047476	    -29.57830082	      8.87230561	    132.82688100	      2.31826641	     48.23325100	      0.45435241	     -7.49999987	    111.41807280	    -22.61101716	     22.07680230	    130.96331712	      2.28574108	     44.57114408	      7.55576070	     -7.49999987	    -25.36983668	      5.36330293	      1.39715431	     66.81006738	      1.97334010	     84.42672942	    118.29348243	     94.40729967	     77.61154633	      2.02681217	     87.66463667	    118.63893867	     82.05575540
      9.78333330	    -21.30893181	     -4.92464445	      4.01307704	     -0.11190957	      0.45095274	      0.08290436	    106.38023842	    -29.62914884	     10.51967362	    134.08236430	      2.34017873	     48.34780549	      1.07536219	     -7.49999987	    112.72972989	    -22.58797626	     22.77159182	    132.19924319	      2.30731206	     45.06534442	      8.17124724	     -7.49999987	    -24.38680961	      5.16767519	      1.31415477	     66.44832059	      1.86160174	     84.35493521	    118.11011738	     97.05607382	     77.49079859	      2.29120303	     87.87881907	    117.94159883	     84.23391122
      9.80000000	    -21.62496014	     -4.72750270	      3.88674417	     -0.11342397	      0.44351686	      0.08163066	    107.95287772	    -29.21772277	     11.90947897	    134.90942370	      2.35461364	     48.15163519	      0.88793195	     -7.49999987	    113.82221768	    -22.49390529	     23.39567051	    133.23313529	      2.32535688	     46.04546550	      9.21688113	     -7.49999987	    -23.88911775	      5.19436150	      1.33978300	     66.78997280	      1.85030770	     84.57648577	    118.05895924	     97.15909984	     77.71294339	      2.61796963	     88.36803480	    117.78994646	     84.16418256
